<svg width="1707" height="1559" viewBox="0 0 1707 1559" fill="none" xmlns="http://www.w3.org/2000/svg">
<g clip-path="url(#clip0_101_2)">
<path d="M861.901 1556.81C873.901 1554.01 880.967 1551.08 890.567 1545.34C910.434 1533.34 904.967 1541.88 997.767 1378.68C1044.17 1296.94 1216.57 993.61 1380.83 704.676C1545.1 415.743 1682.83 173.076 1686.97 165.343C1703.37 134.543 1707.23 120.276 1706.17 94.8097C1705.1 69.6097 1700.3 54.943 1687.23 37.6097C1675.63 22.143 1658.03 10.543 1635.9 3.743L1625.9 0.676335L858.567 0.276402C165.367 0.00979579 90.167 0.143136 80.567 2.0098C64.7003 5.2098 45.5003 14.9431 33.6337 26.0098C9.90034 47.8765 -1.43299 77.0765 0.433677 111.21C1.50035 131.21 4.83368 144.01 13.767 161.743C17.5003 169.21 116.567 347.21 233.767 557.343C350.967 767.476 520.7 1071.61 610.7 1233.34C788.434 1552.28 775.901 1531.21 795.367 1544.01C814.034 1556.28 841.634 1561.48 861.901 1556.81Z" fill="black"/>
</g>
<defs>
<clipPath id="clip0_101_2">
<rect width="1706.67" height="1558.67" fill="white"/>
</clipPath>
</defs>
</svg>
